<svg viewBox="0 0 193 150" fill="none" xmlns="http://www.w3.org/2000/svg">
<path d="M91.512 91.3818C92.604 93.1449 93.1811 95.2115 93.1555 97.2538C93.1811 99.3019 92.6237 101.313 91.652 103.059C91.5375 103.265 91.3914 103.452 91.2671 103.656C91.1344 103.852 91.0211 104.054 90.853 104.244C90.5424 104.627 90.2415 105.013 89.8825 105.363C89.208 106.095 88.4174 106.736 87.5908 107.338C85.9037 108.512 83.9838 109.471 81.909 110.167C79.8414 110.874 77.651 111.371 75.4025 111.671C74.2816 111.836 73.1412 111.925 71.9926 111.987C70.8496 112.085 69.6902 112.059 68.536 112.087C66.222 112.038 63.8961 111.886 61.5828 111.55C59.2761 111.191 56.9704 110.758 54.7047 110.12C52.4413 109.492 50.2014 108.767 48.0216 107.877L47.2008 107.552L46.3939 107.198C45.8557 106.957 45.3136 106.73 44.7815 106.486C43.7263 105.969 42.6586 105.476 41.6286 104.91C41.2076 104.685 40.7891 104.452 40.3807 104.203L39.1716 103.437L39.2506 103.475C36.8062 102.048 34.4448 100.486 32.1893 98.7999C29.9425 97.1024 27.8052 95.2868 25.7771 93.3717C21.7136 89.5489 18.1659 85.2768 15.179 80.743C13.4594 78.1142 11.9382 75.389 10.6471 72.5863L8.83173 68.3219L7.2941 63.9802C5.4212 58.1482 4.27251 52.1647 3.72361 46.1621C2.63456 34.1455 3.89712 22.1234 6.45599 10.4503C6.62935 9.53127 6.92353 8.47383 7.16572 7.37737C7.42251 6.28526 7.65038 5.16572 7.87391 4.16736C8.29661 2.16339 8.45097 0.578849 7.88374 0.470916C6.73466 0.250691 4.7235 4.1654 3.27444 10.6417L2.64144 13.582L2.10093 16.5499L1.83314 18.0347L1.61533 19.5295L1.18463 22.5207C0.727098 26.5266 0.339072 30.5484 0.290607 34.6056C0.201612 36.629 0.280095 38.6599 0.310884 40.6908L0.32227 41.4529L0.565158 45.2624C0.593953 45.7705 0.627648 46.2801 0.694415 46.7854C0.931963 48.8167 1.10101 50.8463 1.47941 52.8678C1.65579 53.877 1.78187 54.8949 1.99135 55.8999L2.64055 58.9163C3.97926 64.7963 6.05493 70.5709 8.81153 76.1434C11.6431 81.6958 15.3475 86.9007 19.6843 91.6392C24.0238 96.369 29.0177 100.63 34.5421 104.214C40.0617 107.797 46.1364 110.693 52.548 112.62C58.2997 114.34 64.3278 115.276 70.2931 115.142C73.2658 115.082 76.2476 114.831 79.1399 114.204C82.0367 113.598 84.8567 112.662 87.4412 111.289C88.7257 110.593 89.9457 109.793 91.0684 108.874C92.1707 107.935 93.1657 106.894 94.0144 105.738C95.7118 103.356 96.5556 100.544 96.5721 97.6791C96.6017 96.2459 96.3723 94.792 95.9382 93.3665C95.7438 92.6488 95.4193 91.9583 95.112 91.2634L94.538 90.2534C94.3586 89.9124 94.0893 89.6058 93.868 89.2806C91.9807 86.7337 88.9282 84.7676 85.5646 84.2356C83.9977 83.9755 82.4092 84.0013 80.9235 84.2697C79.4377 84.5381 78.0402 85.026 76.7592 85.6571C74.1995 86.9294 72.0838 88.7583 70.4925 90.9273C68.911 93.0993 67.8522 95.6534 67.6576 98.4041C67.6352 98.7461 67.6163 99.0939 67.6292 99.4418L67.6383 99.9628L67.6904 100.464C67.773 101.129 67.8005 101.802 67.9652 102.459C68.1017 103.122 68.2272 103.786 68.4484 104.432L68.7464 105.406C68.8625 105.729 68.9971 106.042 69.1194 106.361C70.1394 108.899 71.6135 111.266 73.3282 113.432C75.0464 115.603 77.0025 117.582 79.0807 119.417C81.1603 121.249 83.3717 122.94 85.651 124.511L89.1173 126.78L90.8541 127.91C91.4306 128.29 92.0508 128.611 92.646 128.963C100.874 133.835 109.752 137.718 118.918 140.584C128.093 143.453 137.562 145.32 147.061 146.198C147.623 146.252 148.185 146.307 148.751 146.363C149.316 146.428 149.889 146.462 150.46 146.486C151.604 146.545 152.752 146.609 153.892 146.681C156.177 146.881 158.422 146.915 160.557 147.118L160.485 147.13C163.055 146.959 165.836 146.831 168.624 146.768C170.02 146.765 171.389 146.584 172.719 146.429C174.048 146.26 175.334 146.04 176.529 145.732C178.222 145.427 179.942 145.068 181.605 144.829C182.082 144.759 182.536 144.692 182.969 144.628C183.4 144.554 183.8 144.457 184.181 144.372C184.942 144.203 185.621 144.043 186.213 143.89C187.396 143.588 188.243 143.327 188.758 143.094C189.793 142.63 189.509 142.285 188.067 141.997C187.436 141.87 187.938 141.398 186.108 141.629C186.102 141.632 185.982 141.677 185.982 141.677L186.028 141.648C184.72 141.729 183.387 141.93 182.008 142.126C180.614 142.281 179.193 142.493 177.759 142.73C177.041 142.841 176.323 142.99 175.599 143.089C174.867 143.177 174.134 143.27 173.407 143.359C171.95 143.532 170.498 143.74 169.073 143.857C155.055 144.845 140.655 143.594 126.844 139.904C123.372 139.061 119.987 137.906 116.595 136.795L111.59 134.901C110.745 134.602 109.94 134.225 109.123 133.869L106.675 132.794C105.867 132.426 105.031 132.097 104.237 131.7L101.859 130.496C100.277 129.684 98.666 128.93 97.1535 128.008C95.627 127.114 94.0669 126.263 92.5618 125.333L88.1315 122.438C84.551 120.036 81.2061 117.36 78.3138 114.377C75.4176 111.407 73.0611 108.032 71.7997 104.418C71.6648 103.963 71.5079 103.511 71.3841 103.055L71.0886 101.68C70.977 100.756 70.8361 99.8234 70.8862 98.9618C70.9455 97.1981 71.5255 95.4673 72.4027 93.8958C73.3007 92.3257 74.5326 90.9166 75.999 89.7706C77.4726 88.6361 79.181 87.7461 81.0034 87.3095C83.0003 86.8212 85.1103 86.9323 86.9679 87.6937L87.6556 88.0025L88.3216 88.3661L88.9439 88.7874L89.2588 88.9944C89.3579 89.0711 89.4483 89.1593 89.5426 89.2345L90.115 89.7163L90.6216 90.2586L90.8805 90.529L91.1046 90.8268L91.5578 91.4238C91.5383 91.418 91.5227 91.3992 91.512 91.3818Z" fill="#2C3E50"/>
<path d="M191.228 142.318C191.477 141.93 191.777 141.511 191.98 141.114L192.489 140.102C191.002 139.965 189.397 139.868 188.009 139.685C187.922 139.673 187.853 139.601 187.776 139.559L187.788 139.553L186.709 139.401C186.445 139.36 186.179 139.309 185.917 139.245C184.702 138.943 183.526 138.602 182.229 138.484C182.029 138.462 181.711 138.353 181.333 139.301C180.937 140.29 180.942 140.951 181.322 141.046C182.233 141.265 183.18 141.308 184.012 141.721C184.627 142.022 185.278 142.207 185.936 142.346C186.101 142.381 186.267 142.412 186.433 142.443L186.832 142.51C186.943 142.529 187.009 142.539 187.056 142.558C187.136 142.591 187.223 142.603 187.316 142.612C187.3 142.683 187.23 142.794 187.154 142.87C187.118 142.902 187.072 142.93 187.031 142.946L187.013 142.951L186.961 143.02L186.853 143.167L186.637 143.465C186.35 143.86 186.075 144.264 185.858 144.689C185.483 145.43 185.37 146.291 185.088 147.075C185.023 147.258 184.981 147.471 184.5 147.446L184.487 147.437C184.855 147.858 183.853 147.677 184.45 148.199C184.433 148.274 184.466 148.378 184.393 148.427C184.062 148.649 184.394 148.903 185.633 149.358C185.905 149.458 186.231 149.645 186.451 149.654L186.435 149.639L186.453 149.649C187.362 149.822 187.109 149.388 187.243 149.169C187.906 148.085 188.501 146.962 189.123 145.856L189.673 144.828C189.768 144.653 189.861 144.502 189.975 144.315C190.151 144.009 190.343 143.703 190.548 143.388C190.77 143.053 191.159 142.674 191.236 142.311L191.228 142.318Z" fill="#2C3E50"/>
</svg>
