<svg xmlns="http://www.w3.org/2000/svg" xmlns:xlink="http://www.w3.org/1999/xlink" xml:space="preserve" viewBox="0 0 314.53 277.16"><defs><path id="reuse-0" fill="#fff" d="M299.5 208.24h-95.482c-8.958 0-16.221 7.263-16.221 16.221v34.038c0 8.959 7.263 16.221 16.221 16.221H299.5c8.959 0 16.222-7.262 16.222-16.221v-34.038c0-8.958-7.263-16.221-16.222-16.221z"/><path id="reuse-1" fill="#2c3e50" d="m211.91 275.92 48.337-39.248 47.351 39.566-45.197-.056z"/><path id="reuse-2" fill="#131b25" fill-opacity=".306" d="m248.77 245.99-36.866 29.936 44.259.23 17.496.087z"/><path id="reuse-3" fill="#2c3e50" d="m222.43 226.49-34.628 49.167c11.136 0 26.237.323 36.048.584l32.315-.087z"/></defs><defs><mask id="mask0_2_347" width="129" height="67" x="187" y="208" maskUnits="userSpaceOnUse"><use xlink:href="#reuse-0"/></mask><mask id="mask0_2_347-5" width="129" height="67" x="187" y="208" maskUnits="userSpaceOnUse"><use xlink:href="#reuse-0"/></mask></defs><g transform="translate(39.971 -24.04)"><rect width="88.154" height="147.78" x="-9.145" y="84.504" fill="#eee" paint-order="stroke fill markers" rx="0" ry="2.531"/><rect width="78.083" height="2.028" x="-4.014" y="171.52" fill="#676767" stroke-width=".265" rx="1.014"/><rect width="78.083" height="2.028" x="-4.014" y="166.15" fill="#676767" stroke-width=".265" rx="1.014"/><path fill="#ccc" stroke-width=".185" d="M-4.014 220.72h78.083v3.149H-4.014z"/><path fill="#b2b2b2" stroke-width=".209" d="M-4.014 106.47h78.083v8.429H-4.014z"/><g fill="#676767"><g stroke-width=".265"><rect width="33.802" height="2.028" x="37.225" y="200.06" rx="1.014"/><rect width="33.802" height="2.028" x="37.225" y="195.33" rx="1.014"/><rect width="28.394" height="2.028" x="37.225" y="190.59" rx="1.014"/><rect width="36.845" height="2.028" x="37.225" y="185.86" rx="1.014"/></g><rect width="44.28" height="2.028" x="-4.014" y="176.79" stroke-width=".22" rx=".703"/><g stroke-width=".265"><rect width="78.083" height="2.028" x="-4.014" y="160.99" rx="1.014"/><rect width="31.774" height="2.028" x="-4.014" y="150.51" rx="1.014"/><rect width="40.563" height="2.028" x="-4.014" y="141.05" rx="1.014"/><rect width="40.563" height="2.028" x="-4.014" y="145.78" rx="1.014"/></g><rect width="59.661" height="2.028" x="-4.014" y="131.92" stroke-width=".299" rx="1.297"/><rect width="78.083" height="2.028" x="-4.014" y="127.19" stroke-width=".265" rx="1.014"/></g><path fill="#2c3e50" stroke-width=".246" d="M-7.064 72.136H76.81c.325 0 .647.075.948.222.3.146.573.36.803.631.23.27.413.591.537.945.125.353.189.732.189 1.114v9.996h-88.71V74.91c0-.736.25-1.441.692-1.962.442-.52 1.042-.812 1.668-.812z"/><g fill="#fff" stroke-width=".199"><path d="M69.372 77.992a1.415 1.415 0 1 0 0-2.83 1.415 1.415 0 0 0 0 2.83zM74.168 77.992a1.415 1.415 0 1 0 0-2.83 1.415 1.415 0 0 0 0 2.83zM64.572 77.992a1.415 1.415 0 1 0 0-2.83 1.415 1.415 0 0 0 0 2.83z"/></g><g stroke-width=".265"><path fill="#ccc" d="M-4.014 89.668h78.083v13.521H-4.014z"/><path fill="#b2b2b2" d="M-4.014 211.6h78.083v6.422H-4.014z"/><rect width="78.083" height="2.028" x="-4.014" y="122.46" fill="#676767" rx="1.014"/><path fill="#58d1fe" d="M69.822 138.35H44.559a4.292 4.292 0 0 0-4.292 4.292v9.006a4.292 4.292 0 0 0 4.292 4.291h25.263a4.292 4.292 0 0 0 4.292-4.291v-9.006a4.292 4.292 0 0 0-4.292-4.292z"/><path fill="#dbdfe1" d="M69.168 145.19a2.794 2.794 0 1 0 0-5.589 2.794 2.794 0 0 0 0 5.589z"/><path fill="#c8d5e2" d="M70.408 139.89a2.794 2.794 0 0 1-3.578 4.036 2.795 2.795 0 1 0 3.578-4.036z"/></g><g mask="url(#mask0_2_347)" transform="translate(-9.422 83.248) scale(.26458)"><use xlink:href="#reuse-1"/><use xlink:href="#reuse-2" fill-opacity=".306"/><use xlink:href="#reuse-3"/></g><g stroke-width=".265"><rect width="38.535" height="17.577" x="-4.014" y="185.19" fill="#fff" rx="1.323"/><path fill="#2c3e50" d="M24.718 198.03h3.042v4.732h-3.042z"/><path fill="#58d1fe" d="M28.774 201.07h3.042v1.69h-3.042z"/><path fill="#2c3e50" d="M16.606 193.64h3.042v9.127h-3.042z"/><path fill="#58d1fe" d="M20.662 198.37h3.042v4.394h-3.042zM12.549 197.02h3.042v5.746h-3.042z"/><path fill="#2c3e50" d="M8.493 194.65h3.042v8.113H8.493zM.38 188.23h3.042v14.535H.38z"/><path fill="#58d1fe" d="M4.437 192.62h3.042v10.141H4.437z"/></g><path fill="#eee" stroke-width=".33" d="M156.745 244.043h85.725v57.15h-85.725z"/><path fill="#b2b2b2" stroke-width=".267" d="M160.645 247.533h77.935v8.429h-77.935z"/><path fill="#ccc" stroke-width=".185" d="M160.645 294.993h78.083v3.149h-78.083z"/><g stroke-width=".265" transform="translate(9.525 10.583)"><path fill="#b2b2b2" d="M151.12 275.28h78.083v6.422H151.12z"/><g fill="#676767"><rect width="33.802" height="2.028" x="192.21" y="267.31" rx="1.014"/><rect width="33.802" height="2.028" x="192.21" y="262.58" rx="1.014"/><rect width="28.394" height="2.028" x="192.21" y="257.85" rx="1.014"/><rect width="36.845" height="2.028" x="192.21" y="253.12" rx="1.014"/></g><rect width="38.535" height="17.577" x="150.97" y="252.44" fill="#fff" rx="1.323"/><path fill="#2c3e50" d="M179.7 265.29h3.042v4.732H179.7z"/><path fill="#58d1fe" d="M183.76 268.33h3.042v1.69h-3.042z"/><path fill="#2c3e50" d="M171.59 260.89h3.042v9.127h-3.042z"/><path fill="#58d1fe" d="M175.64 265.62h3.042v4.394h-3.042zM167.53 264.27h3.042v5.746h-3.042z"/><path fill="#2c3e50" d="M163.47 261.91h3.042v8.113h-3.042zM155.36 255.48h3.042v14.535h-3.042z"/><path fill="#58d1fe" d="M159.42 259.88h3.042v10.141h-3.042z"/></g><path fill="#eee" stroke-width=".33" d="M156.745 174.608h85.725v57.15h-85.725z"/><g fill="#676767" transform="translate(9.525 4.378)"><g stroke-width=".265"><rect width="78.083" height="2.028" x="151.04" y="189.76" rx="1.014"/><rect width="78.083" height="2.028" x="151.04" y="201.07" rx="1.014"/><rect width="78.083" height="2.028" x="151.04" y="195.7" rx="1.014"/></g><rect width="44.236" height="2.028" x="151.04" y="206.69" stroke-width=".22" rx=".702"/></g><path fill="#b2b2b2" stroke-width=".267" d="M160.645 178.098h77.935v8.429h-77.935z"/><path fill="#b2b2b2" stroke-width=".265" d="M160.565 221.798h78.083v6.422h-78.083z"/><path fill="none" stroke="#ffdf2a" stroke-linecap="round" stroke-linejoin="round" stroke-miterlimit="1" stroke-width="1.329" d="M2.04 204.91h-6.586v-84.642h6.595" paint-order="fill markers stroke"/><text xml:space="preserve" x="-35.223" y="164.814" fill="#211e0c" stroke-width="1.2" class="component-text" font-family="'Roboto slab'" font-size="4.233" transform="rotate(.305)"><tspan x="-35.223" y="164.814">Page Content</tspan></text><path fill="none" stroke="#1565c0" stroke-linecap="round" stroke-linejoin="round" stroke-miterlimit="1" stroke-width="1.328" d="m2.054 103.83-6.689.006V88.979h6.682" paint-order="fill markers stroke"/><path fill="none" stroke="#ffb300" stroke-linecap="round" stroke-linejoin="round" stroke-miterlimit="1" stroke-width="1.348" d="M2.06 115.56h-6.603v-9.74h6.597" paint-order="fill markers stroke"/><text xml:space="preserve" x="-34.189" y="111.965" fill="#211e0c" stroke-width="1.2" class="component-text" font-family="'Roboto slab'" font-size="4.233" transform="rotate(.305)"><tspan x="-34.189" y="111.965">Page Header</tspan></text><text xml:space="preserve" x="-39.687" y="98.113" fill="#211e0c" stroke-width="1.2" class="component-text" font-family="'Roboto slab'" font-size="4.233" transform="rotate(.305)"><tspan x="-39.687" y="98.113">Section Header</tspan></text><path fill="none" stroke="#00897b" stroke-linecap="round" stroke-linejoin="round" stroke-miterlimit="1" stroke-width="1.329" d="m2.055 218.7-6.61-.006v-7.772h6.612" paint-order="fill markers stroke"/><path fill="none" stroke="#8e24aa" stroke-linecap="round" stroke-linejoin="round" stroke-miterlimit="1" stroke-width="1.31" d="M2.077 224.5h-6.645v-4.45h6.632" paint-order="fill markers stroke"/><text xml:space="preserve" x="-37.56" y="223.093" fill="#211e0c" stroke-width="1.2" class="component-text" font-family="'Roboto slab'" font-size="4.233" transform="rotate(.305)"><tspan x="-37.56" y="223.093">Section Footer</tspan></text><text xml:space="preserve" x="-31.987" y="216.018" fill="#211e0c" stroke-width="1.2" class="component-text" font-family="'Roboto slab'" font-size="4.233" transform="rotate(.305)"><tspan x="-31.987" y="216.018">Page Footer</tspan></text><path fill="#eee" stroke-width=".33" d="M156.745 29.655h85.725v57.15h-85.725z"/><path fill="#ccc" stroke-width=".265" d="M160.495 32.965h78.083v13.521h-78.083z"/><path fill="#b2b2b2" stroke-width=".267" d="M160.645 50.19h77.935v8.429h-77.935z"/><path fill="#b2b2b2" stroke-width=".265" d="M160.565 76.846h78.083v6.422h-78.083z"/><rect width="78.083" height="2.028" x="160.84" y="69.01" fill="#676767" stroke-width=".265" rx="1.014"/><rect width="78.083" height="2.028" x="160.84" y="64.278" fill="#676767" stroke-width=".265" rx="1.014"/><path fill="none" stroke="#1565c0" stroke-linecap="round" stroke-linejoin="round" stroke-miterlimit="1" stroke-width="1.328" d="m232.56 32.303 6.689-.006v14.857h-6.682" paint-order="fill markers stroke"/><text xml:space="preserve" x="244.601" y="39.916" fill="#211e0c" stroke-width="1.2" class="component-text" font-family="'Roboto slab'" font-size="4.233" transform="rotate(.305)"><tspan x="244.601" y="39.916">Section Header</tspan></text><path fill="none" stroke="#ffb300" stroke-linecap="round" stroke-linejoin="round" stroke-miterlimit="1" stroke-width="1.348" d="M232.64 49.533h6.604v9.74h-6.597" paint-order="fill markers stroke"/><text xml:space="preserve" x="244.747" y="54.31" fill="#211e0c" stroke-width="1.2" class="component-text" font-family="'Roboto slab'" font-size="4.233" transform="rotate(.305)"><tspan x="244.747" y="54.31">Page Header</tspan></text><path fill="none" stroke="#ffdf2a" stroke-linecap="round" stroke-linejoin="round" stroke-miterlimit="1" stroke-width="1.348" d="M231.86 61.323h7.377v12.318h-7.387" paint-order="fill markers stroke"/><text xml:space="preserve" x="244.834" y="67.646" fill="#211e0c" stroke-width="1.2" class="component-text" font-family="'Roboto slab'" font-size="4.233" transform="rotate(.305)"><tspan x="244.834" y="67.646">Page Content</tspan></text><path fill="none" stroke="#00897b" stroke-linecap="round" stroke-linejoin="round" stroke-miterlimit="1" stroke-width="1.329" d="m232.64 76.165 6.61.006v7.772h-6.612" paint-order="fill markers stroke"/><text xml:space="preserve" x="244.857" y="80.209" fill="#211e0c" stroke-width="1.2" class="component-text" font-family="'Roboto slab'" font-size="4.233" transform="rotate(.305)"><tspan x="244.857" y="80.209">Page Footer</tspan></text><text xml:space="preserve" x="193.392" y="26.019" fill="#211e0c" stroke-linecap="round" stroke-linejoin="round" stroke-miterlimit="1" stroke-width="1.2" font-family="'Roboto slab'" font-size="4.233" paint-order="fill markers stroke" transform="rotate(.305)"><tspan x="193.392" y="26.019" font-weight="500">Page 1</tspan></text><path fill="#eee" stroke-width=".33" d="M156.74 105.17h85.725v57.15H156.74z"/><path fill="#b2b2b2" stroke-width=".267" d="M160.64 108.66h77.935v8.429H160.64z"/><g stroke-width=".265"><path fill="#b2b2b2" d="M160.56 152.36h78.083v6.422H160.56z"/><g fill="#676767" transform="translate(9.525 4.775)"><rect width="31.774" height="2.028" x="151" y="137.02" rx="1.014"/><rect width="40.563" height="2.028" x="151" y="127.55" rx="1.014"/><rect width="40.563" height="2.028" x="151" y="132.29" rx="1.014"/></g><path fill="#58d1fe" d="M234.355 129.625h-25.263a4.292 4.292 0 0 0-4.292 4.292v9.006a4.292 4.292 0 0 0 4.292 4.292h25.263a4.292 4.292 0 0 0 4.292-4.292v-9.006a4.292 4.292 0 0 0-4.292-4.292z"/><path fill="#dbdfe1" d="M233.705 136.465a2.794 2.794 0 1 0 0-5.588 2.794 2.794 0 0 0 0 5.588z"/><path fill="#c8d5e2" d="M234.945 131.165a2.794 2.794 0 0 1-3.578 4.036 2.795 2.795 0 1 0 3.578-4.036z"/></g><g mask="url(#mask0_2_347-5)" transform="translate(155.12 74.527) scale(.26458)"><use xlink:href="#reuse-1"/><use xlink:href="#reuse-2" fill-opacity=".306"/><use xlink:href="#reuse-3"/></g><rect width="61.086" height="2.028" x="160.64" y="122.6" fill="#676767" stroke-width=".303" rx="1.328"/><path fill="none" stroke="#ffb300" stroke-linecap="round" stroke-linejoin="round" stroke-miterlimit="1" stroke-width="1.348" d="M232.66 108.01h6.604v9.74h-6.597" paint-order="fill markers stroke"/><text xml:space="preserve" x="245.085" y="112.777" fill="#211e0c" stroke-width="1.2" class="component-text" font-family="'Roboto slab'" font-size="4.233" transform="rotate(.305)"><tspan x="245.085" y="112.777">Page Header</tspan></text><text xml:space="preserve" x="245.882" y="136.626" fill="#211e0c" stroke-width="1.2" class="component-text" font-family="'Roboto slab'" font-size="4.233" transform="rotate(.305)"><tspan x="245.882" y="136.626">Page Content</tspan></text><path fill="none" stroke="#00897b" stroke-linecap="round" stroke-linejoin="round" stroke-miterlimit="1" stroke-width="1.329" d="m232.7 151.68 6.61.006v7.772h-6.612" paint-order="fill markers stroke"/><g fill="#211e0c" stroke-width="1.2" font-size="4.233"><text xml:space="preserve" x="245.317" y="155.719" class="component-text" font-family="&quot;Roboto slab&quot;" transform="rotate(.305)"><tspan x="245.317" y="155.719">Page Footer</tspan></text><g stroke-linecap="round" stroke-linejoin="round" stroke-miterlimit="1" font-family="'Roboto slab'"><text xml:space="preserve" x="184.218" y="92.116" paint-order="fill markers stroke" style="inline-size:14.4992;white-space:pre" transform="rotate(.305 -1687 1793.2)"><tspan x="184.218" y="92.116"><tspan font-weight="500">Page 2</tspan></tspan></text><text xml:space="preserve" x="184.218" y="92.116" paint-order="fill markers stroke" style="inline-size:14.4992;white-space:pre" transform="rotate(.305 -14632 2071.6)"><tspan x="184.218" y="92.116"><tspan font-weight="500">Page 3</tspan></tspan></text><text xml:space="preserve" x="184.218" y="92.116" paint-order="fill markers stroke" style="inline-size:14.4992;white-space:pre" transform="rotate(.305 -27792 2106.6)"><tspan x="184.218" y="92.116"><tspan font-weight="500">Page 4</tspan></tspan></text></g></g><path fill="none" stroke="#ffdf2a" stroke-linecap="round" stroke-linejoin="round" stroke-miterlimit="1" stroke-width="1.348" d="M232.67 120.56h6.74v29.243h-6.75" paint-order="fill markers stroke"/><path fill="none" stroke="#ffb300" stroke-linecap="round" stroke-linejoin="round" stroke-miterlimit="1" stroke-width="1.348" d="M232.64 177.44h6.604v9.74h-6.597" paint-order="fill markers stroke"/><text xml:space="preserve" x="245.432" y="182.217" fill="#211e0c" stroke-width="1.2" class="component-text" font-family="'Roboto slab'" font-size="4.233" transform="rotate(.305)"><tspan x="245.432" y="182.217">Page Header</tspan></text><text xml:space="preserve" x="246.229" y="206.065" fill="#211e0c" stroke-width="1.2" class="component-text" font-family="'Roboto slab'" font-size="4.233" transform="rotate(.305)"><tspan x="246.229" y="206.065">Page Content</tspan></text><path fill="none" stroke="#00897b" stroke-linecap="round" stroke-linejoin="round" stroke-miterlimit="1" stroke-width="1.329" d="m232.67 221.12 6.61.006v7.772h-6.612" paint-order="fill markers stroke"/><text xml:space="preserve" x="245.664" y="225.159" fill="#211e0c" stroke-width="1.2" class="component-text" font-family="'Roboto slab'" font-size="4.233" transform="rotate(.305)"><tspan x="245.664" y="225.159">Page Footer</tspan></text><path fill="none" stroke="#ffdf2a" stroke-linecap="round" stroke-linejoin="round" stroke-miterlimit="1" stroke-width="1.348" d="M232.65 190h6.74v29.243h-6.75" paint-order="fill markers stroke"/><path fill="none" stroke="#ffb300" stroke-linecap="round" stroke-linejoin="round" stroke-miterlimit="1" stroke-width="1.348" d="M232.63 246.88h6.604v9.74h-6.597" paint-order="fill markers stroke"/><text xml:space="preserve" x="245.799" y="251.656" fill="#211e0c" stroke-width="1.2" class="component-text" font-family="'Roboto slab'" font-size="4.233" transform="rotate(.305)"><tspan x="245.799" y="251.656">Page Header</tspan></text><text xml:space="preserve" x="246.582" y="272.779" fill="#211e0c" stroke-width="1.2" class="component-text" font-family="'Roboto slab'" font-size="4.233" transform="rotate(.305)"><tspan x="246.582" y="272.779">Page Content</tspan></text><path fill="none" stroke="#00897b" stroke-linecap="round" stroke-linejoin="round" stroke-miterlimit="1" stroke-width="1.329" d="m232.79 285.26 6.61.006v7.772h-6.612" paint-order="fill markers stroke"/><text xml:space="preserve" x="246.005" y="289.828" fill="#211e0c" stroke-width="1.2" class="component-text" font-family="'Roboto slab'" font-size="4.233" transform="rotate(.305)"><tspan x="246.005" y="289.828">Page Footer</tspan></text><path fill="none" stroke="#ffdf2a" stroke-linecap="round" stroke-linejoin="round" stroke-miterlimit="1" stroke-width="1.348" d="M232.58 259.38h6.872v23.352h-6.882" paint-order="fill markers stroke"/><path fill="none" stroke="#8e24aa" stroke-linecap="round" stroke-linejoin="round" stroke-miterlimit="1" stroke-width="1.31" d="M232.74 294.34h6.645v4.45h-6.632" paint-order="fill markers stroke"/><text xml:space="preserve" x="245.895" y="296.759" fill="#211e0c" stroke-width="1.2" class="component-text" font-family="'Roboto slab'" font-size="4.233" transform="rotate(.305)"><tspan x="245.895" y="296.759">Section Footer</tspan></text><path fill="#b3b3b3" fill-opacity=".444" stroke-width=".123" d="M112.58 148.43v-1.619l4.637-4.637-4.637-4.637v-1.62c0-1.52.004-1.618.057-1.618.07 0 7.883 7.806 7.883 7.875 0 .07-7.814 7.875-7.883 7.875-.054 0-.057-.1-.057-1.619zm5.467 0v-1.619l4.637-4.637-4.637-4.637v-1.62c0-1.52.004-1.618.057-1.618.07 0 7.883 7.806 7.883 7.875 0 .07-7.814 7.875-7.883 7.875-.054 0-.057-.1-.057-1.619zm5.467 0v-1.619l4.637-4.637-4.637-4.637v-1.62c0-1.52.004-1.618.057-1.618.07 0 7.883 7.806 7.883 7.875 0 .07-7.814 7.875-7.883 7.875-.054 0-.057-.1-.057-1.619z"/><text xml:space="preserve" x="111.095" y="153.468" stroke-linecap="round" stroke-linejoin="round" stroke-miterlimit="1" stroke-width="1.348" font-family="'Roboto slab'" font-size="8.467" font-weight="500" paint-order="fill markers stroke"><tspan x="111.095" y="153.468">Paprize</tspan></text><g transform="translate(83.058 165.1) scale(.21158)"><rect width="44.113" height="60.559" x="81.544" y="-99.583" paint-order="fill markers stroke" rx="4.44" ry="4.425" transform="skewX(.049)"/><g fill="#fff"><rect width="33.932" height="3.943" x="86.073" y="-62.807" paint-order="markers fill stroke" ry="1.972"/><rect width="33.932" height="3.943" x="86.073" y="-71.129" paint-order="markers fill stroke" ry="1.972"/><rect width="21.769" height="3.943" x="98.236" y="-79.754" paint-order="markers fill stroke" ry="1.972"/></g><g fill="#ccc"><rect width="5.491" height="7.433" x="113.78" y="-46.75" paint-order="markers fill stroke" rx="0" ry="0"/><rect width="5.491" height="2.733" x="105.1" y="-42.007" paint-order="markers fill stroke" rx="0" ry="0"/><rect width="5.491" height="9.535" x="96.413" y="-48.809" paint-order="markers fill stroke" rx="0" ry="0"/></g><rect width="9.149" height="3.943" x="86.302" y="-79.754" fill="#fff" paint-order="markers fill stroke" ry="1.972"/><rect width="34.392" height="9.125" x="86.302" y="-94.714" fill="#cacbcc" paint-order="markers fill stroke" ry="2.377"/><rect width="6.064" height="15.191" x="87.844" y="-54.345" fill="#58d1fe" paint-order="markers fill stroke" rx="0" ry="0"/></g></g></svg>