<svg width="314.53mm" height="277.16mm" version="1.1" viewBox="0 0 314.53 277.16" xml:space="preserve" xmlns="http://www.w3.org/2000/svg"><defs><mask id="mask0_2_347" x="187" y="208" width="129" height="67" maskUnits="userSpaceOnUse"><path d="m299.5 208.24h-95.482c-8.958 0-16.221 7.263-16.221 16.221v34.038c0 8.959 7.263 16.221 16.221 16.221h95.482c8.959 0 16.222-7.262 16.222-16.221v-34.038c0-8.958-7.263-16.221-16.222-16.221z" fill="#fff"/></mask><mask id="mask0_2_347-5" x="187" y="208" width="129" height="67" maskUnits="userSpaceOnUse"><path d="m299.5 208.24h-95.482c-8.958 0-16.221 7.263-16.221 16.221v34.038c0 8.959 7.263 16.221 16.221 16.221h95.482c8.959 0 16.222-7.262 16.222-16.221v-34.038c0-8.958-7.263-16.221-16.222-16.221z" fill="#fff"/></mask></defs><g transform="translate(39.971 -24.04)"><rect x="-9.1447" y="84.504" width="88.154" height="147.78" rx="2.0798e-6" ry="2.5308" fill="#eee" style="paint-order:stroke fill markers"/><rect x="-4.0138" y="171.52" width="78.083" height="2.0281" rx="1.0141" fill="#676767" stroke-width=".26458"/><rect x="-4.0138" y="166.15" width="78.083" height="2.0281" rx="1.0141" fill="#676767" stroke-width=".26458"/><rect x="-4.0138" y="220.72" width="78.083" height="3.1492" fill="#ccc" stroke-width=".18527"/><rect x="-4.0138" y="106.47" width="78.083" height="8.429" fill="#b2b2b2" stroke-width=".2089"/><g fill="#676767"><g stroke-width=".26458"><rect x="37.225" y="200.06" width="33.802" height="2.0281" rx="1.0141"/><rect x="37.225" y="195.33" width="33.802" height="2.0281" rx="1.0141"/><rect x="37.225" y="190.59" width="28.394" height="2.0281" rx="1.0141"/><rect x="37.225" y="185.86" width="36.845" height="2.0281" rx="1.0141"/></g><rect x="-4.0138" y="176.79" width="44.28" height="2.0281" rx=".70286" stroke-width=".22027"/><g stroke-width=".26458"><rect x="-4.0138" y="160.99" width="78.083" height="2.0281" rx="1.0141"/><rect x="-4.0138" y="150.51" width="31.774" height="2.0281" rx="1.0141"/><rect x="-4.0138" y="141.05" width="40.563" height="2.0281" rx="1.0141"/><rect x="-4.0138" y="145.78" width="40.563" height="2.0281" rx="1.0141"/></g><rect x="-4.0138" y="131.92" width="59.661" height="2.0281" rx="1.297" stroke-width=".29922"/><rect x="-4.0138" y="127.19" width="78.083" height="2.0281" rx="1.0141" stroke-width=".26458"/></g><path d="m-7.0644 72.136h83.875c0.32543 0 0.64743 0.07533 0.948 0.22169 0.30056 0.14636 0.57361 0.36088 0.80354 0.63132 0.23018 0.27044 0.41248 0.59149 0.5371 0.94484 0.12435 0.35334 0.18838 0.73206 0.18838 1.1145v9.9957h-88.709v-10.134c0-0.7358 0.24861-1.4415 0.69114-1.9617 0.44253-0.52028 1.0427-0.81257 1.6686-0.81257z" fill="#2c3e50" stroke-width=".24557"/><g fill="#fff" stroke-width=".19922"><path d="m69.372 77.992c0.78155 0 1.4149-0.63345 1.4149-1.4149 0-0.78139-0.63333-1.4148-1.4149-1.4148-0.78136 0-1.4147 0.63345-1.4147 1.4148 0 0.78142 0.63333 1.4149 1.4147 1.4149z"/><path d="m74.168 77.992c0.78155 0 1.4149-0.63345 1.4149-1.4149 0-0.78139-0.63333-1.4148-1.4149-1.4148-0.78136 0-1.4147 0.63345-1.4147 1.4148 0 0.78142 0.63333 1.4149 1.4147 1.4149z"/><path d="m64.572 77.992c0.78135 0 1.4149-0.63345 1.4149-1.4149 0-0.78139-0.63353-1.4148-1.4149-1.4148-0.78136 0-1.4149 0.63345-1.4149 1.4148 0 0.78142 0.63353 1.4149 1.4149 1.4149z"/></g><g stroke-width=".26458"><rect x="-4.0138" y="89.668" width="78.083" height="13.521" fill="#ccc"/><rect x="-4.0138" y="211.6" width="78.083" height="6.4224" fill="#b2b2b2"/><rect x="-4.0138" y="122.46" width="78.083" height="2.0281" rx="1.0141" fill="#676767"/><path d="m69.822 138.35h-25.263c-2.3701 0-4.2918 1.9217-4.2918 4.2918v9.0059c0 2.3704 1.9217 4.2918 4.2918 4.2918h25.263c2.3704 0 4.2921-1.9214 4.2921-4.2918v-9.0059c0-2.3701-1.9217-4.2918-4.2921-4.2918z" fill="#58d1fe"/><path d="m69.168 145.19c1.5433 0 2.7943-1.2512 2.7943-2.7945s-1.251-2.7943-2.7943-2.7943-2.7943 1.251-2.7943 2.7943 1.251 2.7945 2.7943 2.7945z" fill="#dbdfe1"/><path d="m70.408 139.89c0.29845 0.45535 0.4572 0.98769 0.4572 1.5322 0 0.74083-0.29448 1.4518-0.81862 1.9756-0.52388 0.52387-1.2346 0.81836-1.9756 0.81836-0.43047 0-0.85486-0.0992-1.2406-0.29025 0.25427 0.38788 0.60114 0.70617 1.0091 0.92657 0.40799 0.2204 0.8644 0.33576 1.328 0.33576 0.74136 0 1.452-0.29422 1.9762-0.81836 0.52388-0.52414 0.81836-1.2348 0.81836-1.9759 0-0.5207-0.14552-1.0311-0.42016-1.4735-0.27437-0.44239-0.66702-0.79931-1.1337-1.0306z" fill="#c8d5e2"/></g><g transform="matrix(.26458 0 0 .26458 -9.4222 83.248)" mask="url(#mask0_2_347)"><path d="m211.91 275.92 48.337-39.248 47.351 39.566-45.197-0.056z" fill="#2c3e50"/><path d="m248.77 245.99-36.866 29.936 44.259 0.23 17.496 0.087z" fill="#131b25" fill-opacity=".3059"/><path d="m222.43 226.49-34.628 49.167c11.136 0 26.237 0.323 36.048 0.584l32.315-0.087z" fill="#2c3e50"/></g><g stroke-width=".26458"><rect x="-4.0138" y="185.19" width="38.535" height="17.577" rx="1.3229" fill="#fff"/><rect x="24.718" y="198.03" width="3.0422" height="4.7323" fill="#2c3e50"/><rect x="28.774" y="201.07" width="3.0422" height="1.6901" fill="#58d1fe"/><rect x="16.606" y="193.64" width="3.0422" height="9.1266" fill="#2c3e50"/><rect x="20.662" y="198.37" width="3.0422" height="4.3943" fill="#58d1fe"/><rect x="12.549" y="197.02" width="3.0422" height="5.7464" fill="#58d1fe"/><rect x="8.493" y="194.65" width="3.0422" height="8.1125" fill="#2c3e50"/><rect x=".38048" y="188.23" width="3.0422" height="14.535" fill="#2c3e50"/><rect x="4.4368" y="192.62" width="3.0422" height="10.141" fill="#58d1fe"/></g><g transform="translate(9.525 10.583)"><rect x="147.22" y="233.46" width="85.725" height="57.15" fill="#eee" stroke-width=".33003"/><rect x="151.12" y="236.95" width="77.935" height="8.429" fill="#b2b2b2" stroke-width=".26664"/><rect x="151.12" y="284.41" width="78.083" height="3.1492" fill="#ccc" stroke-width=".18527"/><rect x="151.12" y="275.28" width="78.083" height="6.4224" fill="#b2b2b2" stroke-width=".26458"/><g fill="#676767" stroke-width=".26458"><rect x="192.21" y="267.31" width="33.802" height="2.0281" rx="1.0141"/><rect x="192.21" y="262.58" width="33.802" height="2.0281" rx="1.0141"/><rect x="192.21" y="257.85" width="28.394" height="2.0281" rx="1.0141"/><rect x="192.21" y="253.12" width="36.845" height="2.0281" rx="1.0141"/></g><g stroke-width=".26458"><rect x="150.97" y="252.44" width="38.535" height="17.577" rx="1.3229" fill="#fff"/><rect x="179.7" y="265.29" width="3.0422" height="4.7323" fill="#2c3e50"/><rect x="183.76" y="268.33" width="3.0422" height="1.6901" fill="#58d1fe"/><rect x="171.59" y="260.89" width="3.0422" height="9.1266" fill="#2c3e50"/><rect x="175.64" y="265.62" width="3.0422" height="4.3943" fill="#58d1fe"/><rect x="167.53" y="264.27" width="3.0422" height="5.7464" fill="#58d1fe"/><rect x="163.47" y="261.91" width="3.0422" height="8.1125" fill="#2c3e50"/><rect x="155.36" y="255.48" width="3.0422" height="14.535" fill="#2c3e50"/><rect x="159.42" y="259.88" width="3.0422" height="10.141" fill="#58d1fe"/></g></g><g transform="translate(9.525 4.378)"><rect x="147.22" y="170.23" width="85.725" height="57.15" fill="#eee" stroke-width=".33003"/><g fill="#676767"><g stroke-width=".26458"><rect x="151.04" y="189.76" width="78.083" height="2.0281" rx="1.0141"/><rect x="151.04" y="201.07" width="78.083" height="2.0281" rx="1.0141"/><rect x="151.04" y="195.7" width="78.083" height="2.0281" rx="1.0141"/></g><rect x="151.04" y="206.69" width="44.236" height="2.0281" rx=".70216" stroke-width=".22016"/></g><rect x="151.12" y="173.72" width="77.935" height="8.429" fill="#b2b2b2" stroke-width=".26664"/><rect x="151.04" y="217.42" width="78.083" height="6.4224" fill="#b2b2b2" stroke-width=".26458"/></g><g stroke-linecap="round" stroke-linejoin="round" stroke-miterlimit="1"><path d="m2.0396 204.91h-6.5859v-84.642h6.5953" fill="none" stroke="#ffdf2a" stroke-width="1.329" style="paint-order:fill markers stroke"/><text transform="rotate(.30511)" x="-24.743008" y="164.6228" fill="#211e0c" font-family="'Roboto slab'" font-size="4.2333px" stroke-width="1.2" style="paint-order:fill markers stroke" xml:space="preserve"><tspan x="-24.743008" y="164.6228" fill="#211e0c" font-size="4.2333px" stroke-width="1.2">Content</tspan></text><path d="m2.0543 103.83-6.6889 6e-3v-14.857h6.6818" fill="none" stroke="#1565c0" stroke-width="1.3284" style="paint-order:fill markers stroke"/><path d="m2.0607 115.56h-6.6037v-9.7408h6.597" fill="none" stroke="#ffb300" stroke-width="1.348" style="paint-order:fill markers stroke"/><text transform="rotate(.30511)" x="-23.63339" y="112.21296" fill="#211e0c" font-family="'Roboto slab'" font-size="4.2333px" stroke-width="1.2" style="paint-order:fill markers stroke" xml:space="preserve"><tspan x="-23.63339" y="112.21296" fill="#211e0c" font-size="4.2333px" stroke-width="1.2">Header</tspan></text><text transform="rotate(.30511)" x="-39.686813" y="98.113426" fill="#211e0c" font-family="'Roboto slab'" font-size="4.2333px" stroke-width="1.2" style="paint-order:fill markers stroke" xml:space="preserve"><tspan x="-39.686813" y="98.113426" fill="#211e0c" font-size="4.2333px" stroke-width="1.2">Section Header</tspan></text><path d="m2.0548 218.7-6.6093-6e-3v-7.7718h6.6117" fill="none" stroke="#00897b" stroke-width="1.329" style="paint-order:fill markers stroke"/><path d="m2.077 224.5h-6.6447v-4.4491h6.6317" fill="none" stroke="#8e24aa" stroke-width="1.31" style="paint-order:fill markers stroke"/><text transform="rotate(.30511)" x="-37.560131" y="223.09288" fill="#211e0c" font-family="'Roboto slab'" font-size="4.2333px" stroke-width="1.2" style="paint-order:fill markers stroke" xml:space="preserve"><tspan x="-37.560131" y="223.09288" fill="#211e0c" font-size="4.2333px" stroke-width="1.2">Section Footer</tspan></text><text transform="rotate(.30511)" x="-21.620346" y="215.85329" fill="#211e0c" font-family="'Roboto slab'" font-size="4.2333px" stroke-width="1.2" style="paint-order:fill markers stroke" xml:space="preserve"><tspan x="-21.620346" y="215.85329" fill="#211e0c" font-size="4.2333px" stroke-width="1.2">Footer</tspan></text></g><g transform="translate(9.525)"><rect x="147.22" y="29.655" width="85.725" height="57.15" fill="#eee" stroke-width=".33003"/><rect x="150.97" y="32.965" width="78.083" height="13.521" fill="#ccc" stroke-width=".26458"/><rect x="151.12" y="50.19" width="77.935" height="8.429" fill="#b2b2b2" stroke-width=".26664"/><rect x="151.04" y="76.846" width="78.083" height="6.4224" fill="#b2b2b2" stroke-width=".26458"/></g><rect x="160.84" y="69.01" width="78.083" height="2.0281" rx="1.0141" fill="#676767" stroke-width=".26458"/><rect x="160.84" y="64.278" width="78.083" height="2.0281" rx="1.0141" fill="#676767" stroke-width=".26458"/><g stroke-linecap="round" stroke-linejoin="round" stroke-miterlimit="1"><path d="m232.56 32.303 6.689-6e-3v14.857h-6.6818" fill="none" stroke="#1565c0" stroke-width="1.3284" style="paint-order:fill markers stroke"/><text transform="rotate(.30511)" x="244.60074" y="39.915928" fill="#211e0c" font-family="'Roboto slab'" font-size="4.2333px" stroke-width="1.2" style="paint-order:fill markers stroke" xml:space="preserve"><tspan x="244.60074" y="39.915928" fill="#211e0c" font-size="4.2333px" stroke-width="1.2">Section Header</tspan></text><path d="m232.64 49.533h6.6038v9.7408h-6.597" fill="none" stroke="#ffb300" stroke-width="1.348" style="paint-order:fill markers stroke"/><text transform="rotate(.30511)" x="244.74744" y="54.310112" fill="#211e0c" font-family="'Roboto slab'" font-size="4.2333px" stroke-width="1.2" style="paint-order:fill markers stroke" xml:space="preserve"><tspan x="244.74744" y="54.310112" fill="#211e0c" font-size="4.2333px" stroke-width="1.2">Header</tspan></text><path d="m231.86 61.323h7.3772v12.318h-7.3877" fill="none" stroke="#ffdf2a" stroke-width="1.348" style="paint-order:fill markers stroke"/><text transform="rotate(.30511)" x="244.83435" y="67.646263" fill="#211e0c" font-family="'Roboto slab'" font-size="4.2333px" stroke-width="1.2" style="paint-order:fill markers stroke" xml:space="preserve"><tspan x="244.83435" y="67.646263" fill="#211e0c" font-size="4.2333px" stroke-width="1.2">Content</tspan></text><path d="m232.64 76.165 6.6093 6e-3v7.7718h-6.6117" fill="none" stroke="#00897b" stroke-width="1.329" style="paint-order:fill markers stroke"/><text transform="rotate(.30511)" x="244.85664" y="80.208595" fill="#211e0c" font-family="'Roboto slab'" font-size="4.2333px" stroke-width="1.2" style="paint-order:fill markers stroke" xml:space="preserve"><tspan x="244.85664" y="80.208595" fill="#211e0c" font-size="4.2333px" stroke-width="1.2">Footer</tspan></text><text transform="rotate(.30511)" x="193.39154" y="26.019268" fill="#211e0c" font-family="'Roboto slab'" font-size="4.2333px" stroke-width="1.2" style="paint-order:fill markers stroke" xml:space="preserve"><tspan x="193.39154" y="26.019268" fill="#211e0c" font-family="'Roboto slab'" font-size="4.2333px" font-weight="500" stroke-width="1.2">Page 1</tspan></text></g><rect x="156.74" y="105.17" width="85.725" height="57.15" fill="#eee" stroke-width=".33003"/><rect x="160.64" y="108.66" width="77.935" height="8.429" fill="#b2b2b2" stroke-width=".26664"/><g stroke-width=".26458"><rect x="160.56" y="152.36" width="78.083" height="6.4224" fill="#b2b2b2"/><g transform="translate(9.525,4.7754)" fill="#676767"><rect x="151" y="137.02" width="31.774" height="2.0281" rx="1.0141"/><rect x="151" y="127.55" width="40.563" height="2.0281" rx="1.0141"/><rect x="151" y="132.29" width="40.563" height="2.0281" rx="1.0141"/></g><g transform="translate(9.525,4.7754)"><path d="m224.83 124.85h-25.263c-2.3701 0-4.2918 1.9217-4.2918 4.2918v9.0059c0 2.3704 1.9217 4.2918 4.2918 4.2918h25.263c2.3704 0 4.2921-1.9214 4.2921-4.2918v-9.0059c0-2.3701-1.9217-4.2918-4.2921-4.2918z" fill="#58d1fe"/><path d="m224.18 131.69c1.5433 0 2.7943-1.2512 2.7943-2.7945s-1.251-2.7943-2.7943-2.7943-2.7943 1.251-2.7943 2.7943 1.251 2.7945 2.7943 2.7945z" fill="#dbdfe1"/><path d="m225.42 126.39c0.29845 0.45535 0.4572 0.98769 0.4572 1.5322 0 0.74083-0.29449 1.4518-0.81862 1.9756-0.52388 0.52387-1.2346 0.81836-1.9756 0.81836-0.43048 0-0.85487-0.0992-1.2406-0.29025 0.25427 0.38788 0.60113 0.70617 1.0091 0.92657s0.86439 0.33576 1.3279 0.33576c0.74137 0 1.452-0.29422 1.9762-0.81836 0.52387-0.52414 0.81835-1.2348 0.81835-1.9759 0-0.5207-0.14552-1.0311-0.42015-1.4735-0.27438-0.44239-0.66702-0.79931-1.1337-1.0306z" fill="#c8d5e2"/></g></g><g transform="matrix(.26458 0 0 .26458 155.12 74.527)" mask="url(#mask0_2_347-5)"><path d="m211.91 275.92 48.337-39.248 47.351 39.566-45.197-0.056z" fill="#2c3e50"/><path d="m248.77 245.99-36.866 29.936 44.259 0.23 17.496 0.087z" fill="#131b25" fill-opacity=".3059"/><path d="m222.43 226.49-34.628 49.167c11.136 0 26.237 0.323 36.048 0.584l32.315-0.087z" fill="#2c3e50"/></g><rect x="160.64" y="122.6" width="61.086" height="2.0281" rx="1.328" fill="#676767" stroke-width=".30278"/><g stroke-linecap="round" stroke-linejoin="round" stroke-miterlimit="1"><path d="m232.66 108.01h6.6038v9.7408h-6.597" fill="none" stroke="#ffb300" stroke-width="1.348" style="paint-order:fill markers stroke"/><text transform="rotate(.30511)" x="245.08475" y="112.77686" fill="#211e0c" font-family="'Roboto slab'" font-size="4.2333px" stroke-width="1.2" style="paint-order:fill markers stroke" xml:space="preserve"><tspan x="245.08475" y="112.77686" fill="#211e0c" font-size="4.2333px" stroke-width="1.2">Header</tspan></text><text transform="rotate(.30511)" x="245.88229" y="136.62572" fill="#211e0c" font-family="'Roboto slab'" font-size="4.2333px" stroke-width="1.2" style="paint-order:fill markers stroke" xml:space="preserve"><tspan x="245.88229" y="136.62572" fill="#211e0c" font-size="4.2333px" stroke-width="1.2">Content</tspan></text><path d="m232.7 151.68 6.6093 6e-3v7.7718h-6.6117" fill="none" stroke="#00897b" stroke-width="1.329" style="paint-order:fill markers stroke"/><g transform="translate(9.525,4.7754)" fill="#211e0c" font-family="'Roboto slab'" font-size="4.2333px" stroke-width="1.2"><text transform="rotate(.30511)" x="235.76642" y="150.99464" style="paint-order:fill markers stroke" xml:space="preserve"><tspan x="235.76642" y="150.99464" fill="#211e0c" font-size="4.2333px" stroke-width="1.2">Footer</tspan></text><text transform="rotate(.30511 -794.97 2.1167)" x="184.21838" y="92.116051" style="inline-size:14.4992;paint-order:fill markers stroke;white-space:pre" xml:space="preserve"><tspan x="184.21838" y="92.116051"><tspan font-weight="500">Page 2</tspan></tspan></text><text transform="rotate(.30511 -13740 280.53)" x="184.21838" y="92.116051" style="inline-size:14.4992;paint-order:fill markers stroke;white-space:pre" xml:space="preserve"><tspan x="184.21838" y="92.116051"><tspan font-weight="500">Page 3</tspan></tspan></text><text transform="rotate(.30511 -26900 315.56)" x="184.21838" y="92.116051" style="inline-size:14.4992;paint-order:fill markers stroke;white-space:pre" xml:space="preserve"><tspan x="184.21838" y="92.116051"><tspan font-weight="500">Page 4</tspan></tspan></text></g><path d="m232.67 120.56h6.7407v29.243h-6.7503" fill="none" stroke="#ffdf2a" stroke-width="1.348" style="paint-order:fill markers stroke"/><path d="m232.64 177.44h6.6038v9.7408h-6.597" fill="none" stroke="#ffb300" stroke-width="1.348" style="paint-order:fill markers stroke"/><text transform="rotate(.30511)" x="245.43155" y="182.21652" fill="#211e0c" font-family="'Roboto slab'" font-size="4.2333px" stroke-width="1.2" style="paint-order:fill markers stroke" xml:space="preserve"><tspan x="245.43155" y="182.21652" fill="#211e0c" font-size="4.2333px" stroke-width="1.2">Header</tspan></text><text transform="rotate(.30511)" x="246.2291" y="206.06538" fill="#211e0c" font-family="'Roboto slab'" font-size="4.2333px" stroke-width="1.2" style="paint-order:fill markers stroke" xml:space="preserve"><tspan x="246.2291" y="206.06538" fill="#211e0c" font-size="4.2333px" stroke-width="1.2">Content</tspan></text><path d="m232.67 221.12 6.6093 6e-3v7.7718h-6.6117" fill="none" stroke="#00897b" stroke-width="1.329" style="paint-order:fill markers stroke"/><text transform="rotate(.30511)" x="245.66351" y="225.15892" fill="#211e0c" font-family="'Roboto slab'" font-size="4.2333px" stroke-width="1.2" style="paint-order:fill markers stroke" xml:space="preserve"><tspan x="245.66351" y="225.15892" fill="#211e0c" font-size="4.2333px" stroke-width="1.2">Footer</tspan></text><path d="m232.65 190h6.7407v29.243h-6.7503" fill="none" stroke="#ffdf2a" stroke-width="1.348" style="paint-order:fill markers stroke"/><path d="m232.63 246.88h6.6038v9.7408h-6.597" fill="none" stroke="#ffb300" stroke-width="1.348" style="paint-order:fill markers stroke"/><text transform="rotate(.30511)" x="245.79883" y="251.65617" fill="#211e0c" font-family="'Roboto slab'" font-size="4.2333px" stroke-width="1.2" style="paint-order:fill markers stroke" xml:space="preserve"><tspan x="245.79883" y="251.65617" fill="#211e0c" font-size="4.2333px" stroke-width="1.2">Header</tspan></text><text transform="rotate(.30511)" x="246.58183" y="272.77869" fill="#211e0c" font-family="'Roboto slab'" font-size="4.2333px" stroke-width="1.2" style="paint-order:fill markers stroke" xml:space="preserve"><tspan x="246.58183" y="272.77869" fill="#211e0c" font-size="4.2333px" stroke-width="1.2">Content</tspan></text><path d="m232.79 285.26 6.6093 6e-3v7.7718h-6.6117" fill="none" stroke="#00897b" stroke-width="1.329" style="paint-order:fill markers stroke"/><text transform="rotate(.30511)" x="246.00539" y="289.82797" fill="#211e0c" font-family="'Roboto slab'" font-size="4.2333px" stroke-width="1.2" style="paint-order:fill markers stroke" xml:space="preserve"><tspan x="246.00539" y="289.82797" fill="#211e0c" font-size="4.2333px" stroke-width="1.2">Footer</tspan></text><path d="m232.58 259.38h6.8722v23.352h-6.882" fill="none" stroke="#ffdf2a" stroke-width="1.348" style="paint-order:fill markers stroke"/><path d="m232.74 294.34h6.6447v4.4491h-6.6317" fill="none" stroke="#8e24aa" stroke-width="1.31" style="paint-order:fill markers stroke"/><text transform="rotate(.30511)" x="245.89462" y="296.75928" fill="#211e0c" font-family="'Roboto slab'" font-size="4.2333px" stroke-width="1.2" style="paint-order:fill markers stroke" xml:space="preserve"><tspan x="245.89462" y="296.75928" fill="#211e0c" font-size="4.2333px" stroke-width="1.2">Section Footer</tspan></text></g><path d="m112.58 148.43v-1.6188l4.637-4.6373-4.637-4.6373v-1.6188c0-1.5206 4e-3 -1.6188 0.057-1.6188 0.0696 0 7.883 7.8056 7.883 7.8751 0 0.0693-7.8137 7.8749-7.8832 7.8749-0.0534 0-0.0568-0.0994-0.0568-1.6188zm5.4669 0v-1.6188l4.637-4.6373-4.637-4.6373v-1.6188c0-1.5206 4e-3 -1.6188 0.057-1.6188 0.0696 0 7.883 7.8056 7.883 7.8751 0 0.0693-7.8137 7.8749-7.8832 7.8749-0.0534 0-0.0569-0.0994-0.0569-1.6188zm5.4669 0v-1.6188l4.6369-4.6373-4.6369-4.6373v-1.6188c0-1.5206 4e-3 -1.6188 0.057-1.6188 0.0696 0 7.883 7.8056 7.883 7.8751 0 0.0693-7.8137 7.8749-7.8832 7.8749-0.0535 0-0.0568-0.0994-0.0568-1.6188z" fill="#b3b3b3" fill-opacity=".44414" stroke-width=".12299"/><text x="111.09495" y="153.46777" fill="#000000" font-family="'Roboto slab'" font-size="8.4667px" font-weight="500" stroke-linecap="round" stroke-linejoin="round" stroke-miterlimit="1" stroke-width="1.348" style="paint-order:fill markers stroke" xml:space="preserve"><tspan x="111.09495" y="153.46777" fill="#000000" font-size="8.4667px" stroke-width="1.348">Paprize</tspan></text><g transform="matrix(.21158 0 0 .21158 83.058 165.1)"><rect transform="matrix(1 -.0025153 .0033667 .99999 0 0)" x="81.544" y="-99.583" width="44.113" height="60.559" rx="4.4399" ry="4.4249" style="paint-order:fill markers stroke"/><g fill="#fff"><rect x="86.073" y="-62.807" width="33.932" height="3.9435" ry="1.9717" style="paint-order:markers fill stroke"/><rect x="86.073" y="-71.129" width="33.932" height="3.9435" ry="1.9717" style="paint-order:markers fill stroke"/><rect x="98.236" y="-79.754" width="21.769" height="3.9435" ry="1.9717" style="paint-order:markers fill stroke"/></g><g fill="#ccc"><rect x="113.78" y="-46.75" width="5.4908" height="7.4326" rx="0" ry="0" style="paint-order:markers fill stroke"/><rect x="105.1" y="-42.007" width="5.4908" height="2.7329" rx="0" ry="0" style="paint-order:markers fill stroke"/><rect x="96.413" y="-48.809" width="5.4908" height="9.5351" rx="0" ry="0" style="paint-order:markers fill stroke"/></g><rect x="35.306" y="38.148" width="62.039" height="4.0973" ry="2.0486" display="none" fill="#0c0d0e" style="paint-order:markers fill stroke"/><rect x="86.302" y="-79.754" width="9.1487" height="3.9435" ry="1.9717" fill="#fff" style="paint-order:markers fill stroke"/><rect x="86.302" y="-94.714" width="34.392" height="9.1248" ry="2.3771" fill="#cacbcc" style="paint-order:markers fill stroke"/><rect x="87.844" y="-54.345" width="6.0637" height="15.191" rx="0" ry="0" fill="#58d1fe" style="paint-order:markers fill stroke"/></g></g></svg>
