<?xml version="1.0" encoding="UTF-8"?>
<svg version="1.1" viewBox="0 0 64 64" xml:space="preserve" xmlns="http://www.w3.org/2000/svg"><g transform="translate(-72.427 101.69)"><rect transform="matrix(1 -.0025153 .0033667 .99999 0 0)" x="81.544" y="-99.583" width="44.113" height="60.559" rx="4.4399" ry="4.4249" style="paint-order:fill markers stroke"/><g fill="#fff"><rect x="86.073" y="-62.807" width="33.932" height="3.9435" ry="1.9717" style="paint-order:markers fill stroke"/><rect x="86.073" y="-71.129" width="33.932" height="3.9435" ry="1.9717" style="paint-order:markers fill stroke"/><rect x="98.236" y="-79.754" width="21.769" height="3.9435" ry="1.9717" style="paint-order:markers fill stroke"/></g><g fill="#ccc"><rect x="113.78" y="-46.75" width="5.4908" height="7.4326" rx="0" ry="0" style="paint-order:markers fill stroke"/><rect x="105.1" y="-42.007" width="5.4908" height="2.7329" rx="0" ry="0" style="paint-order:markers fill stroke"/><rect x="96.413" y="-48.809" width="5.4908" height="9.5351" rx="0" ry="0" style="paint-order:markers fill stroke"/></g><rect x="35.306" y="38.148" width="62.039" height="4.0973" ry="2.0486" display="none" fill="#0c0d0e" style="paint-order:markers fill stroke"/><rect x="86.302" y="-79.754" width="9.1487" height="3.9435" ry="1.9717" fill="#fff" style="paint-order:markers fill stroke"/><rect x="86.302" y="-94.714" width="34.392" height="9.1248" ry="2.3771" fill="#cacbcc" style="paint-order:markers fill stroke"/><rect x="87.844" y="-54.345" width="6.0637" height="15.191" rx="0" ry="0" fill="#58d1fe" style="paint-order:markers fill stroke"/></g></svg>
