<?xml version="1.0" encoding="UTF-8" standalone="no"?>
<svg
   width="161.99mm"
   height="192.37mm"
   version="1.1"
   viewBox="0 0 161.99 192.37"
   xml:space="preserve"
   id="svg20"
   sodipodi:docname="logo.svg"
   inkscape:version="1.4.2 (f4327f4, 2025-05-13)"
   xmlns:inkscape="http://www.inkscape.org/namespaces/inkscape"
   xmlns:sodipodi="http://sodipodi.sourceforge.net/DTD/sodipodi-0.dtd"
   xmlns="http://www.w3.org/2000/svg"
   xmlns:svg="http://www.w3.org/2000/svg"><sodipodi:namedview
     id="namedview20"
     pagecolor="#ffffff"
     bordercolor="#000000"
     borderopacity="0.25"
     inkscape:showpageshadow="2"
     inkscape:pageopacity="0.0"
     inkscape:pagecheckerboard="0"
     inkscape:deskcolor="#d1d1d1"
     inkscape:document-units="mm"
     inkscape:zoom="1.7622534"
     inkscape:cx="282.59274"
     inkscape:cy="268.97381"
     inkscape:window-width="3840"
     inkscape:window-height="2054"
     inkscape:window-x="-11"
     inkscape:window-y="-11"
     inkscape:window-maximized="1"
     inkscape:current-layer="g16" /><defs
     id="defs1"><clipPath
       id="clipPath13"><rect
         x="36.767"
         y="50.741"
         width="56.652"
         height="29.441"
         ry="7.1836"
         fill="#58d1fe"
         stroke-width=".98731"
         style="paint-order:markers fill stroke"
         id="rect1" /></clipPath></defs><g
     transform="translate(-18.472 -12.845)"
     id="g20"><path
       d="m169.91 98.235h-140.89v101.54c-1e-6 2.6859 1.7318 4.8528 3.8683 4.8633l114.82 0.57103 22.198-21.279z"
       fill="#f5f5f0"
       style="paint-order:markers fill stroke"
       id="path1" /><path
       d="m32.099 12.845c-1.7063 0-3.0795 1.5332-3.0795 3.438v81.953h140.89v-81.953c0-1.9048-1.3737-3.438-3.08-3.438z"
       fill="#f1f1f1"
       style="paint-order:markers fill stroke"
       id="path2" /><g
       fill="#676767"
       id="g10"><rect
         x="120.4"
         y="71.759"
         width="43.421"
         height="4.2003"
         ry="2.1001"
         style="paint-order:markers fill stroke"
         id="rect2" /><rect
         x="101.68"
         y="71.759"
         width="16.357"
         height="4.2003"
         ry="2.1001"
         style="paint-order:markers fill stroke"
         id="rect3" /><rect
         x="144.99"
         y="63.019"
         width="17.099"
         height="4.2003"
         ry="2.1001"
         style="paint-order:markers fill stroke"
         id="rect4" /><rect
         x="101.68"
         y="63.019"
         width="41.188"
         height="4.2003"
         ry="2.1001"
         style="paint-order:markers fill stroke"
         id="rect5" /><rect
         x="101.87"
         y="54.279"
         width="60.214"
         height="4.2003"
         ry="2.1001"
         style="paint-order:markers fill stroke"
         id="rect6" /><rect
         x="58.257"
         y="169.83"
         width="76.928"
         height="4.2003"
         ry="2.1001"
         style="paint-order:markers fill stroke"
         id="rect7" /><rect
         x="120.86"
         y="159.49"
         width="39.905"
         height="4.2003"
         ry="2.1001"
         style="paint-order:markers fill stroke"
         id="rect8" /><rect
         x="37.973"
         y="169.83"
         width="18.182"
         height="4.2003"
         ry="2.1001"
         style="paint-order:markers fill stroke"
         id="rect9" /><rect
         x="37.973"
         y="159.49"
         width="80.067"
         height="4.2003"
         ry="2.1001"
         style="paint-order:markers fill stroke"
         id="rect10" /></g><path
       transform="matrix(.92714 0 0 1.3339 .068608 -28.204)"
       x="31.264702"
       y="30.801105"
       width="151.92363"
       height="18.802248"
       d="m35.306 30.801h143.64a4.2422 4.2422 45 0 1 4.2422 4.2422v14.56h-151.92v-14.761a4.0411 4.0411 135 0 1 4.0411-4.0411z"
       fill="#2c3e50"
       style="paint-order:markers fill stroke"
       id="path10" /><g
       fill="#fff"
       id="g12"><circle
         cx="150.39"
         cy="22.013"
         r="3.1451"
         style="paint-order:markers fill stroke"
         id="circle10" /><circle
         cx="161.05"
         cy="22.013"
         r="3.1451"
         style="paint-order:markers fill stroke"
         id="circle11" /><circle
         cx="139.73"
         cy="22.013"
         r="3.1451"
         style="paint-order:markers fill stroke"
         id="circle12" /></g><rect
       x="35.306"
       y="38.148"
       width="62.039"
       height="4.0973"
       ry="2.0486"
       display="none"
       fill="#0c0d0e"
       style="paint-order:markers fill stroke"
       id="rect12" /><rect
       x="18.472"
       y="96.283"
       width="161.99"
       height="1.9528"
       ry=".60387"
       fill="#090909"
       fill-opacity=".89351"
       style="paint-order:markers fill stroke"
       id="rect13" /><g
       id="g16"><path
         d="M 169.9063,183.93033 147.11,205.209 146.76514,183.63 Z"
         fill="#e8e8da"
         style="paint-order:markers fill stroke;fill:#eaeae2;fill-opacity:1"
         id="path13"
         sodipodi:nodetypes="cccc" /><rect
         x="36.767"
         y="112.06"
         width="124"
         height="22.881"
         ry="2.6023"
         fill="#ccc"
         style="paint-order:markers fill stroke"
         id="rect14" /><rect
         x="37.973"
         y="149.93"
         width="122.79"
         height="4.2003"
         ry="2.1001"
         fill="#676767"
         style="paint-order:markers fill stroke"
         id="rect15" /><rect
         x="36.767"
         y="50.741"
         width="56.652"
         height="29.441"
         ry="7.1836"
         fill="#58d1fe"
         stroke-width=".98731"
         style="paint-order:markers fill stroke"
         id="rect16" /><circle
         cx="85.14"
         cy="57.513"
         r="4.6772"
         fill="#dbdfe1"
         style="paint-order:markers fill stroke"
         id="circle16" /><path
         d="m87.217 53.322a4.6772 4.6772 0 0 1 0.76533 2.5642 4.6772 4.6772 0 0 1-4.6772 4.6767 4.6772 4.6772 0 0 1-2.0764-0.48576 4.6772 4.6772 0 0 0 3.9119 2.113 4.6772 4.6772 0 0 0 4.6772-4.6772 4.6772 4.6772 0 0 0-2.6009-4.191z"
         fill="#c8d5e2"
         style="paint-order:markers fill stroke"
         id="path16" /><text
         xml:space="preserve"
         style="font-size:7.05556px;font-family:'Roboto slab';-inkscape-font-specification:'Roboto slab';text-align:start;writing-mode:lr-tb;direction:ltr;text-anchor:start;fill:#eaeae2;fill-opacity:1;stroke-width:4.59999;stroke-linecap:round;stroke-linejoin:round;stroke-miterlimit:1;paint-order:fill markers stroke"
         x="33.865849"
         y="23.98842"
         id="text20"><tspan
           sodipodi:role="line"
           id="tspan20"
           style="font-size:7.05556px;stroke-width:4.6"
           x="33.865849"
           y="23.98842">Paprize</tspan></text></g><g
       clip-path="url(#clipPath13)"
       id="g19"><path
         d="m47.442 80.714 21.406-17.381 20.97 17.522-20.016-0.024712z"
         fill="#2c3e50"
         style="paint-order:markers fill stroke"
         id="path17" /><path
         d="m63.768 67.457-16.326 13.257 19.6 0.10218 7.7484 0.03838z"
         fill="#131b25"
         fill-opacity=".3059"
         style="paint-order:markers fill stroke"
         id="path18" /><path
         d="m52.101 58.821-15.335 21.774c4.9317 2e-6 11.619 0.14326 15.964 0.25873l14.311-0.03838z"
         fill="#2c3e50"
         style="paint-order:markers fill stroke"
         id="path19" /></g></g></svg>
