<?xml version="1.0" encoding="UTF-8" standalone="no"?>
<svg
  
   viewBox="0 0 335.27936 466.25729"
   fill="none"
   version="1.1"
   id="svg30"
   sodipodi:docname="page.svg"
   inkscape:version="1.4.2 (f4327f4, 2025-05-13)"
   xmlns:inkscape="http://www.inkscape.org/namespaces/inkscape"
   xmlns:sodipodi="http://sodipodi.sourceforge.net/DTD/sodipodi-0.dtd"
   xmlns="http://www.w3.org/2000/svg"
   xmlns:svg="http://www.w3.org/2000/svg">
  <defs
     id="defs30" />
  <sodipodi:namedview
     id="namedview30"
     pagecolor="#ffffff"
     bordercolor="#000000"
     borderopacity="0.25"
     inkscape:showpageshadow="2"
     inkscape:pageopacity="0.0"
     inkscape:pagecheckerboard="0"
     inkscape:deskcolor="#d1d1d1"
     inkscape:zoom="1.7100214"
     inkscape:cx="183.03865"
     inkscape:cy="263.15461"
     inkscape:window-width="1920"
     inkscape:window-height="1094"
     inkscape:window-x="-11"
     inkscape:window-y="-11"
     inkscape:window-maximized="1"
     inkscape:current-layer="svg30" />
  <rect
     style="fill:#eeeeee;fill-opacity:1;stroke:none;stroke-width:2.097;stroke-linejoin:round;stroke-miterlimit:1;stroke-dasharray:none;stroke-opacity:1;paint-order:stroke fill markers"
     id="rect31"
     width="333.18222"
     height="418.46262"
     x="1.048562"
     y="46.746113"
     ry="7.1661925"
     rx="7.8606799e-06" />
  <rect
     x="180.304"
     y="389.48999"
     width="127.757"
     height="7.6654"
     rx="3.8327"
     fill="#676767"
     id="rect1" />
  <rect
     x="180.304"
     y="371.604"
     width="127.757"
     height="7.6654"
     rx="3.8327"
     fill="#676767"
     id="rect2" />
  <rect
     x="180.304"
     y="353.71899"
     width="107.316"
     height="7.6654"
     rx="3.8327"
     fill="#676767"
     id="rect3" />
  <rect
     x="180.304"
     y="335.83301"
     width="139.255"
     height="7.6654"
     rx="3.8327"
     fill="#676767"
     id="rect4" />
  <rect
     x="24.441002"
     y="307.72601"
     width="241.46001"
     height="7.6654"
     rx="3.8327"
     fill="#676767"
     id="rect5" />
  <rect
     x="24.441002"
     y="289.84"
     width="295.11801"
     height="7.6654"
     rx="3.8327"
     fill="#676767"
     id="rect6" />
  <rect
     x="24.441002"
     y="250.23599"
     width="120.091"
     height="7.6654"
     rx="3.8327"
     fill="#676767"
     id="rect7" />
  <rect
     x="24.441002"
     y="214.464"
     width="153.308"
     height="7.6654"
     rx="3.8327"
     fill="#676767"
     id="rect8" />
  <rect
     x="24.441002"
     y="232.35001"
     width="153.308"
     height="7.6654"
     rx="3.8327"
     fill="#676767"
     id="rect9" />
  <rect
     x="24.441002"
     y="179.97"
     width="176.304"
     height="7.6654"
     rx="3.8327"
     fill="#676767"
     id="rect10" />
  <rect
     x="24.441002"
     y="162.084"
     width="295.11801"
     height="7.6654"
     rx="3.8327"
     fill="#676767"
     id="rect11" />
  <path
     d="M 8.9112191,0 H 325.91735 c 1.23,0 2.447,0.2847124 3.583,0.8378833 1.136,0.5531718 2.168,1.36396 3.037,2.3860883 0.87,1.0221284 1.559,2.2355674 2.03,3.5710484 0.47,1.335472 0.712,2.766823 0.712,4.212337 V 48.786526 H 0 V 10.485835 C 0,7.704866 0.93961875,5.037824 2.6121687,3.0714 4.284709,1.1049846 6.553169,2.572e-4 8.918509,2.572e-4 Z"
     fill="#2c3e50"
     id="path11"
     style="stroke-width:0.928144" />
  <path
     d="m 297.80607,22.133995 c 2.9539,0 5.34759,-2.394146 5.34759,-5.347524 0,-2.953302 -2.39369,-5.347448 -5.34759,-5.347448 -2.95316,0 -5.34685,2.394146 -5.34685,5.347448 0,2.953378 2.39369,5.347524 5.34685,5.347524 z"
     fill="#ffffff"
     id="path12"
     style="stroke-width:0.752971" />
  <path
     d="m 315.93083,22.133995 c 2.9539,0 5.34759,-2.394146 5.34759,-5.347524 0,-2.953302 -2.39369,-5.347448 -5.34759,-5.347448 -2.95316,0 -5.34685,2.394146 -5.34685,5.347448 0,2.953378 2.39369,5.347524 5.34685,5.347524 z"
     fill="#ffffff"
     id="path13"
     style="stroke-width:0.752971" />
  <path
     d="m 279.66474,22.133995 c 2.95315,0 5.3476,-2.394146 5.3476,-5.347524 0,-2.953302 -2.39445,-5.347448 -5.3476,-5.347448 -2.95315,0 -5.3476,2.394146 -5.3476,5.347448 0,2.953378 2.39445,5.347524 5.3476,5.347524 z"
     fill="#ffffff"
     id="path14"
     style="stroke-width:0.752971" />
  <rect
     x="24.441002"
     y="66.266197"
     width="295.11801"
     height="51.102699"
     fill="#d9d9d9"
     id="rect14"
     style="fill:#cccccc;fill-opacity:1" />
  <rect
     x="24.441002"
     y="429.095"
     width="295.11801"
     height="24.2738"
     fill="#d9d9d9"
     id="rect15"
     style="fill:#cccccc;fill-opacity:1" />
  <rect
     x="24.441002"
     y="144.198"
     width="295.11801"
     height="7.6654"
     rx="3.8327"
     fill="#676767"
     id="rect16" />
  <path
     d="m 303.505,204.243 h -95.482 c -8.958,0 -16.221,7.263 -16.221,16.221 v 34.038 c 0,8.959 7.263,16.221 16.221,16.221 h 95.482 c 8.959,0 16.222,-7.262 16.222,-16.221 v -34.038 c 0,-8.958 -7.263,-16.221 -16.222,-16.221 z"
     fill="#58d1fe"
     id="path16" />
  <path
     d="m 301.032,230.097 c 5.833,0 10.561,-4.729 10.561,-10.562 0,-5.833 -4.728,-10.561 -10.561,-10.561 -5.833,0 -10.561,4.728 -10.561,10.561 0,5.833 4.728,10.562 10.561,10.562 z"
     fill="#dbdfe1"
     id="path17" />
  <path
     d="m 305.722,210.071 c 1.128,1.721 1.728,3.733 1.728,5.791 0,2.8 -1.113,5.487 -3.094,7.467 -1.98,1.98 -4.666,3.093 -7.467,3.093 -1.627,0 -3.231,-0.375 -4.689,-1.097 0.961,1.466 2.272,2.669 3.814,3.502 1.542,0.833 3.267,1.269 5.019,1.269 2.802,0 5.488,-1.112 7.469,-3.093 1.98,-1.981 3.093,-4.667 3.093,-7.468 0,-1.968 -0.55,-3.897 -1.588,-5.569 -1.037,-1.672 -2.521,-3.021 -4.285,-3.895 z"
     fill="#c8d5e2"
     id="path18" />
  <mask
     id="mask0_2_347"
     maskUnits="userSpaceOnUse"
     x="187"
     y="208"
     width="129"
     height="67">
    <path
       d="m 299.505,208.243 h -95.482 c -8.958,0 -16.221,7.263 -16.221,16.221 v 34.038 c 0,8.959 7.263,16.221 16.221,16.221 h 95.482 c 8.959,0 16.222,-7.262 16.222,-16.221 v -34.038 c 0,-8.958 -7.263,-16.221 -16.222,-16.221 z"
       fill="#ffffff"
       id="path19" />
  </mask>
  <g
     mask="url(#mask0_2_347)"
     id="g22"
     transform="translate(4,-4)">
    <path
       d="m 211.907,275.925 48.337,-39.248 47.351,39.566 -45.197,-0.056 z"
       fill="#2c3e50"
       id="path20" />
    <path
       d="m 248.773,245.989 -36.866,29.936 44.259,0.23 17.496,0.087 z"
       fill="#131b25"
       fill-opacity="0.3059"
       id="path21" />
    <path
       d="M 222.428,226.489 187.8,275.656 c 11.136,0 26.237,0.323 36.048,0.584 l 32.315,-0.087 z"
       fill="#2c3e50"
       id="path22" />
  </g>
  <rect
     x="24.441002"
     y="333.27802"
     width="145.64301"
     height="66.433502"
     rx="5"
     fill="#eeeeee"
     id="rect22"
     style="fill:#ffffff;fill-opacity:1" />
  <rect
     x="133.034"
     y="381.82501"
     width="11.4981"
     height="17.8859"
     fill="#2c3e50"
     id="rect23" />
  <rect
     x="148.36501"
     y="393.323"
     width="11.4981"
     height="6.3878298"
     fill="#2c3e50"
     id="rect24"
     style="fill:#58d1fe;fill-opacity:1" />
  <rect
     x="102.3726"
     y="365.21701"
     width="11.4981"
     height="34.494301"
     fill="#2c3e50"
     id="rect25" />
  <rect
     x="117.703"
     y="383.103"
     width="11.4981"
     height="16.6084"
     fill="#2c3e50"
     id="rect26"
     style="fill:#58d1fe;fill-opacity:1" />
  <rect
     x="87.041801"
     y="377.992"
     width="11.4981"
     height="21.718599"
     fill="#2c3e50"
     id="rect27"
     style="fill:#58d1fe;fill-opacity:1" />
  <rect
     x="71.710999"
     y="369.04999"
     width="11.4981"
     height="30.6616"
     fill="#2c3e50"
     id="rect28" />
  <rect
     x="41.0494"
     y="344.776"
     width="11.4981"
     height="54.935398"
     fill="#2c3e50"
     id="rect29" />
  <rect
     x="56.380199"
     y="361.384"
     width="11.4981"
     height="38.327"
     fill="#58d1fe"
     id="rect30" />
</svg>
