<svg viewBox="0 0 219 43" preserveAspectRatio="none" fill="none" xmlns="http://www.w3.org/2000/svg">
<path d="M214.516 39.6037C218.793 39.8702 219.877 39.2516 218.332 37.3234C217.994 36.8998 218.316 36.3412 217.268 36.0539C217.226 36.0419 217.142 36.0181 217.099 36.0031C214.82 35.1767 212.552 35.2276 210.265 35.3195C210.497 34.9412 210.337 34.3814 209.816 33.6125C209.531 33.1874 209.827 32.6304 208.917 32.34C208.88 32.328 208.805 32.3042 208.768 32.2892C205.995 31.1232 203.206 31.6739 200.38 31.6545C199.574 31.6488 198.768 31.6457 197.962 31.6408C198.064 31.2791 197.935 30.7941 197.591 30.1721C197.51 30.0275 197.498 29.8682 197.483 29.7092C198.29 29.6541 199.12 29.5905 199.898 29.6554C203.677 29.9728 204.74 29.3686 203.65 27.424C203.412 26.9959 203.788 26.4431 202.893 26.1437C202.856 26.1317 202.782 26.1059 202.751 26.091C200.073 24.898 197.156 25.4197 194.277 25.3703C192.914 25.3471 191.55 25.326 190.186 25.3049C190.799 24.9533 190.804 24.3126 190.276 23.3283C190.049 22.9002 190.419 22.348 189.552 22.0471C189.515 22.0351 189.446 22.0093 189.414 21.9943C189.138 21.8677 188.859 21.7609 188.579 21.6701C189.557 21.6403 190.481 21.6012 191.223 21.5451C192.123 21.4777 193.049 21.391 193.938 21.4494C198.013 21.7159 199.045 21.0992 197.563 19.1711C197.511 19.1026 197.478 19.0291 197.451 18.9553C199.378 18.8307 199.744 18.1255 198.786 16.6515C198.579 16.3307 198.715 15.9372 198.402 15.6369C199.451 15.3526 199.549 14.6629 198.818 13.4689C198.559 13.0423 198.887 12.487 197.998 12.1935C197.961 12.1816 197.887 12.1553 197.855 12.1418C197.326 11.9093 196.791 11.7465 196.253 11.6301C197.096 11.3139 197.111 10.637 196.389 9.5158C196.12 9.09854 196.399 8.55643 195.579 8.2619C195.723 7.88989 195.574 7.37115 195.155 6.68572C194.896 6.25907 195.213 5.70375 194.335 5.41033C194.298 5.39833 194.224 5.37203 194.192 5.35857C191.535 4.18202 188.773 4.72104 186.005 4.68963C183.214 4.65796 180.422 4.63264 177.631 4.60955C178.803 4.38496 178.923 3.67886 178.124 2.35467C177.87 1.92951 178.103 1.37211 177.325 1.08318C177.293 1.07119 177.23 1.04736 177.198 1.0324C174.832 -0.129272 172.514 0.425823 170.137 0.409356C158.494 0.33301 146.85 0.373807 135.207 0.369317C128.062 0.36782 120.916 0.477538 113.771 0.281426C111.825 0.227716 109.863 -0.0130473 107.896 0.140801C105.831 0.0913012 103.76 -0.0122785 101.694 0.00115305C93.8769 0.0550462 85.6992 -0.0546605 78.2048 0.133966C77.919 0.14589 77.5166 0.0704254 77.0828 0.0734187C75.0024 0.0898938 67.6301 0.206231 62.904 0.206231C51.959 0.207729 41.019 0.262822 30.1374 0.855645C28.4385 0.948451 25.5384 0.971257 25.697 2.66424C25.7477 3.2087 25.9748 3.68166 26.3513 4.07342C25.0656 4.11548 23.7801 4.16157 22.4949 4.21404C20.4996 4.29488 17.1121 4.29772 17.1492 5.99236C17.1791 7.41516 18.6494 8.35898 21.0398 8.63885C20.8733 8.84138 20.7839 9.08448 20.8015 9.38006C20.8392 10.0082 21.1512 10.5409 21.6902 10.965C20.0048 11.1022 18.3574 11.462 18.3718 12.6359C18.3789 13.223 18.6363 13.7282 19.1052 14.1398C18.2889 14.1678 17.4722 14.1969 16.656 14.2287C14.5548 14.311 10.9828 14.3144 11.0251 16.009C11.0435 16.6877 11.4073 17.2567 12.0564 17.6974C9.96492 17.7661 7.87454 17.8431 5.78588 17.9338C3.57884 18.0296 -0.178655 18.0571 0.00658233 19.7502C0.197269 21.5121 2.78008 22.5259 6.62768 22.4406C7.76683 22.4152 8.90653 22.3857 10.0466 22.3547C10.6303 23.5603 12.6161 24.2464 15.488 24.216C17.0875 24.1989 18.6892 24.1727 20.2917 24.1447C19.2226 24.3695 18.405 24.7842 18.3621 25.5881C18.3108 26.5363 18.9419 27.2766 20.0994 27.7521C19.8062 27.98 19.6253 28.2716 19.6111 28.6496C19.5476 30.4131 21.7334 31.4523 25.2107 31.4074C29.0131 31.3587 32.8286 31.2624 36.6384 31.2013C36.6333 31.2758 36.6321 31.3537 36.6413 31.4357C36.6526 31.5342 36.6713 31.6301 36.6941 31.7238C35.6287 31.7638 34.5635 31.8048 33.4988 31.8517C31.4664 31.9416 28.0099 31.9584 28.1316 33.6515C28.1964 34.5497 28.8393 35.2548 29.9226 35.7209C25.6424 35.8205 21.3661 35.9517 17.0964 36.1291C14.7835 36.2249 10.8409 36.2534 11.0261 37.9465C11.222 39.7084 13.9265 40.7217 17.9646 40.6349C25.5002 40.4735 33.058 40.1677 40.5964 40.1525C41.145 41.3254 42.8152 41.9839 45.1853 41.9406C52.3355 41.8119 59.539 41.4378 66.6257 41.7746C76.9991 42.2686 87.3883 42.0724 97.7722 42.2101C107.092 42.3329 116.429 42.2828 125.749 42.4221C134.503 42.5538 143.236 42.9767 151.995 42.9992C159.553 43.0187 167.132 42.6137 174.7 42.4894C176.484 42.461 178.606 42.7838 180.559 42.7658C182.174 42.7508 184.863 42.7488 186.471 42.6096C187.165 42.5497 187.884 42.4724 188.556 42.5383C191.647 42.8391 192.499 42.231 191.568 40.2912C191.495 40.1411 191.483 39.9748 191.468 39.8097C192.818 39.7744 194.17 39.7414 195.521 39.714C197.961 39.6647 200.914 39.9624 203.587 39.9221C205.799 39.8891 209.483 39.8581 211.669 39.6994C212.611 39.6305 213.59 39.5453 214.516 39.6037Z" fill="inherit"/>
</svg>
