<svg xmlns="http://www.w3.org/2000/svg" fill="none" viewBox="0 0 16 16"><path fill="#000" d="M15.523 14.29v-.781a.835.835 0 0 0-.835-.836H1.317a.835.835 0 0 0-.836.836v.78zM1.395 12.323l.052-.568-.22.573a.872.872 0 0 1 .09-.005zm13.123-.957.077.957h.093c.05 0 .099.004.147.01zm1.06 1.363c.184.208.27.482.296.78.12 1.398-.913 1.15-.913 1.15l-14.336.05c-.552-.144-.53-.645-.493-1.2.041-.314.126-.604.329-.817l1.182-3.063.515-5.63.582.053-.465 5.073.164.063-.222.575-.235 2.56H14.01l-.667-8.285.582-.047.394 4.887zm-14.146.515c.353 0 .353.53 0 .53s-.353-.53 0-.53zm.904 0c.353 0 .353.53 0 .53s-.353-.53 0-.53zm.876 0c.353 0 .353.53 0 .53s-.353-.53 0-.53z"/><path fill="#00d8a2" d="m13.084 9.447 1.89-.913v-.913l-4.367-2.086 4.368-2.249v-.88l-1.826-.846-5.171 2.574L2.72 1.56l-1.695.913v.782l4.106 2.25-4.106 2.085v.945l1.76.913L8 6.774z"/><path fill="#000" d="M13.379 9.074v-.393l1.423-.737v.441zM1.197 7.934l1.375.79v.313l-1.375-.696zm7.043-1.66 4.73 2.337v.47L8.24 6.657zM2.98 8.68l4.852-2.405v.383L2.981 9.111zm3.436-3.93L1.505 2.38l1.274-.647L8.036 4.46l5.169-2.726 1.316.674-4.787 2.41a.26.26 0 0 0 0 .465l4.738 2.371-1.227.636-5.21-2.669-5.3 2.724-1.211-.695 4.894-2.433a.26.26 0 0 0-.002-.468zM1.258 3.182v-.43l4.578 2.283-.463.185zm9.388 2.063-.439-.207 4.595-2.313v.433zm.46.227 4.038-2.028a.121.121 0 0 0 .067-.108v-.96a.121.121 0 0 0-.066-.108l-1.884-.964a.121.121 0 0 0-.11 0l-5.06 2.568a.12.12 0 0 1-.11 0l-5.15-2.57a.121.121 0 0 0-.109.001l-1.867.95a.121.121 0 0 0-.067.107v.975c0 .046.026.088.068.11l4.055 2.002L.875 7.452a.121.121 0 0 0-.068.106l-.017.96a.12.12 0 0 0 .066.11l1.94.98a.121.121 0 0 0 .108 0L7.981 7.06a.121.121 0 0 1 .11 0l5.013 2.55a.121.121 0 0 0 .108 0l1.93-.934a.121.121 0 0 0 .069-.11v-1a.121.121 0 0 0-.068-.11z"/></svg>