<svg version="1.1" viewBox="0 0 86.122 101.28" xml:space="preserve" xmlns="http://www.w3.org/2000/svg"><g transform="translate(-65.159 -63.283)"><path d="m91.34 132.7c-0.99231-0.54882-1.3512-1.1905-1.3614-2.4346-9e-3 -1.1467 0.1742-1.3508 8.068-8.9675l8.0777-7.7941-3.9571-3.7823-0.84322 0.76096c-1.3802 1.2456-2.8412 1.7959-5.1511 1.9404-3.6916 0.23096-4.5925-0.33316-12.245-7.6671-3.5737-3.4251-6.7052-6.6072-6.9587-7.0713-1.0054-1.84 0.39107-4.0047 2.5834-4.0047 1.0007 0 1.5876 0.48635 7.9784 6.6115 8.6164 8.2582 7.751 8.0188 12.538 3.4696 4.6909-4.4579 4.955-3.5763-3.5495-11.851-6.4597-6.2849-6.8182-6.4481-6.8556-7.899-0.03738-1.451 1.6708-2.8222 2.9044-2.6501 1.2336 0.17211 3.5961 2.2668 8.4413 6.9691 6.681 6.484 7.2112 7.0762 7.666 8.5618 0.87852 2.8698 0.40729 5.6077-1.3224 7.6835-0.51217 0.61464-0.93122 1.2286-0.93122 1.3643 0 0.13575 0.82109 1.0304 1.8246 1.9881l1.8246 1.7413 2.1061-1.9686-0.7437-1.4154c-0.40904-0.77845-0.90722-2.335-1.1071-3.459-0.31241-1.757-0.28713-2.3858 0.18024-4.4833 0.81132-3.6411 2.0741-5.8992 4.7512-8.4958 3.4768-3.3723 7.2187-4.9826 11.578-4.9826 9.5248 0 15.312 7.9462 12.347 16.954-2.0103 6.1089-7.7888 10.699-14.364 11.411-2.1188 0.2292-5.1569-0.24536-7.0422-1.1l-1.3375-0.60631-2.1056 1.9682 8.0789 7.8109c7.2736 7.0323 8.079 7.9068 8.079 8.7727 0 1.8875-1.0334 2.9563-2.8721 2.9707-1.1617 9e-3 -1.4306-0.21577-9.2931-7.7692l-8.0968-7.7786-8.0873 7.7786c-7.4872 7.2014-8.1655 7.7779-9.1408 7.7696-0.57939-5e-3 -1.3277-0.16061-1.6628-0.34598zm35.361-25.535c6.3697-2.2984 9.5087-10.077 5.7674-14.293-3.1898-3.5939-9.1864-3.1617-13.221 0.95292-2.5898 2.6408-3.6385 5.5101-3.0702 8.4002 0.88488 4.4998 5.6041 6.7147 10.524 4.9394zm-37.715-9.5998c-5.6473-5.4462-6.3304-6.2084-6.3304-7.0626 0-1.8519 1.7907-3.2878 3.5648-2.8584 1.0227 0.24754 12.378 11.018 12.902 12.237 0.76142 1.7728-0.65264 3.7888-2.6575 3.7888-1.0881 0-1.4808-0.32063-7.4788-6.105z"/></g><g stroke-linecap="round" stroke-linejoin="round" stroke-miterlimit="1"><path d="m10.294 0c-5.5735 0-10.135 4.5613-10.135 10.135v78.715c0 1.5365 0.34638 2.9962 0.96531 4.3046 0.92714-1.5726 2.2632-2.879 3.8587-3.7703-0.01662-0.17549-0.02532-0.3537-0.02532-0.53433v-78.715c0-2.9973 2.3389-5.3356 5.3361-5.3356h65.693c2.9972 0 5.3361 2.3383 5.3361 5.3356v75.508l4.7636-0.02604 0.03506-75.482c0.002592-5.5735-4.5612-10.135-10.135-10.135z" stop-color="#000000" style="paint-order:fill markers stroke"/><path d="m81.324 80.843c-0.3321-0.06847-6.1104-0.01043-6.8135-0.01043h-64.288c-5.6219 0-10.223 4.6007-10.223 10.223s4.6007 10.223 10.223 10.223h64.288c2.8061 0 2.8447-4.7775 0-4.7775h-64.288c-3.0588 0-5.4451-2.3864-5.4451-5.4451 0-3.0588 2.3864-5.4472 5.4451-5.4472h64.288c-0.8806 0 6.4104 0.03723 6.8135 0.03503s0.3321-4.7315 0-4.8z" stop-color="#000000" style="paint-order:fill markers stroke"/><rect x="11.535" y="90.75" width="72.868" height=".58829" ry=".29414" fill="none" stroke="#000" stroke-width="3.4388" style="paint-order:fill markers stroke"/></g></svg>
